<svg width="70" height="48" viewBox="0 0 70 48" fill="none" xmlns="http://www.w3.org/2000/svg">
<path d="M58.3906 16.6484C54.8125 7.21094 45.6953 0.5 35.0156 0.5C24.3359 0.5 15.2188 7.20312 11.6406 16.6406C4.94531 18.3984 0 24.5 0 31.75C0 40.3828 6.99219 47.375 15.6172 47.375H18.75C19.0938 47.375 19.375 47.0938 19.375 46.75V42.0625C19.375 41.7188 19.0938 41.4375 18.75 41.4375H15.6172C12.9844 41.4375 10.5078 40.3906 8.66406 38.4922C6.82812 36.6016 5.85156 34.0547 5.9375 31.4141C6.00781 29.3516 6.71094 27.4141 7.98438 25.7812C9.28906 24.1172 11.1172 22.9062 13.1484 22.3672L16.1094 21.5938L17.1953 18.7344C17.8672 16.9531 18.8047 15.2891 19.9844 13.7812C21.149 12.2868 22.5286 10.973 24.0781 9.88281C27.2891 7.625 31.0703 6.42969 35.0156 6.42969C38.9609 6.42969 42.7422 7.625 45.9531 9.88281C47.5078 10.9766 48.8828 12.2891 50.0469 13.7812C51.2266 15.2891 52.1641 16.9609 52.8359 18.7344L53.9141 21.5859L56.8672 22.3672C61.1016 23.5078 64.0625 27.3594 64.0625 31.75C64.0625 34.3359 63.0547 36.7734 61.2266 38.6016C60.33 39.5033 59.2635 40.2183 58.0888 40.7051C56.914 41.1919 55.6544 41.4408 54.3828 41.4375H51.25C50.9062 41.4375 50.625 41.7188 50.625 42.0625V46.75C50.625 47.0938 50.9062 47.375 51.25 47.375H54.3828C63.0078 47.375 70 40.3828 70 31.75C70 24.5078 65.0703 18.4141 58.3906 16.6484Z" fill="#ED4C5C"/>
</svg>
